<svg xmlns="http://www.w3.org/2000/svg" version="1.1" xmlns:xlink="http://www.w3.org/1999/xlink" xmlns:svgjs="http://svgjs.dev/svgjs" width="1000" height="623" viewBox="0 0 1000 623"><g transform="matrix(1,0,0,1,-0.6060606060606233,0.2522267206477409)"><svg viewBox="0 0 396 247" data-background-color="#f3d3b1" preserveAspectRatio="xMidYMid meet" height="623" width="1000" xmlns="http://www.w3.org/2000/svg" xmlns:xlink="http://www.w3.org/1999/xlink"><g id="tight-bounds" transform="matrix(1,0,0,1,0.2400000000000091,-0.09999999999999432)"><svg viewBox="0 0 395.52 247.2" height="247.2" width="395.52"><g><svg></svg></g><g><svg viewBox="0 0 395.52 247.2" height="247.2" width="395.52"><g transform="matrix(1,0,0,1,75.54432000000001,85.22838337301442)"><svg viewBox="0 0 244.43135999999996 76.74323325397113" height="76.74323325397113" width="244.43135999999996"><g><svg viewBox="0 0 390.9956666045854 122.75950043205432" height="76.74323325397113" width="244.43135999999996"><g transform="matrix(1,0,0,1,146.56430660458537,36.170912625027825)"><svg viewBox="0 0 244.43136 50.41767518199868" height="50.41767518199868" width="244.43136"><g id="textblocktransform"><svg viewBox="0 0 244.43136 50.41767518199868" height="50.41767518199868" width="244.43136" id="textblock"><g><svg viewBox="0 0 244.43136 50.41767518199868" height="50.41767518199868" width="244.43136"><g transform="matrix(1,0,0,1,0,0)"><svg width="244.43136" viewBox="1.5 -40.05 226.63 46.75" height="50.41767518199868" data-palette-color="#374151"><path d="M29.3-35.1L29.3-35.1Q30.55-35.1 31.48-34.27 32.4-33.45 32.4-32.2L32.4-32.2Q32.4-31.55 32.1-30.85L32.1-30.85 19.75-1.95Q19.3-0.95 18.48-0.48 17.65 0 16.8 0L16.8 0Q16-0.05 15.25-0.53 14.5-1 14.1-1.9L14.1-1.9 1.75-30.9Q1.6-31.2 1.55-31.53 1.5-31.85 1.5-32.15L1.5-32.15Q1.5-33.6 2.55-34.38 3.6-35.15 4.55-35.15L4.55-35.15Q6.45-35.15 7.3-33.2L7.3-33.2 18.25-7.45 16.5-7.4 26.55-33.2Q27.4-35.1 29.3-35.1ZM38.1 6.7L38.1 6.7Q37.25 6.7 36.35 6 35.45 5.3 35.45 4.2L35.45 4.2Q35.45 3.6 35.75 3L35.75 3 56.05-38.55Q56.4-39.25 57-39.65 57.6-40.05 58.25-40.05L58.25-40.05Q59.1-40.05 59.97-39.38 60.85-38.7 60.85-37.55L60.85-37.55Q60.85-36.95 60.55-36.35L60.55-36.35 40.3 5.2Q39.95 5.9 39.37 6.3 38.8 6.7 38.1 6.7ZM98.25-17.5L98.25-17.5Q98.25-13.75 97-10.5 95.75-7.25 93.47-4.78 91.2-2.3 88.07-0.9 84.95 0.5 81.25 0.5L81.25 0.5Q77.55 0.5 74.45-0.9 71.34-2.3 69.07-4.78 66.8-7.25 65.55-10.5 64.3-13.75 64.3-17.5L64.3-17.5Q64.3-21.25 65.55-24.5 66.8-27.75 69.07-30.23 71.34-32.7 74.45-34.1 77.55-35.5 81.25-35.5L81.25-35.5Q84.95-35.5 88.07-34.1 91.2-32.7 93.47-30.23 95.75-27.75 97-24.5 98.25-21.25 98.25-17.5ZM91.75-17.5L91.75-17.5Q91.75-20.85 90.4-23.58 89.05-26.3 86.7-27.9 84.34-29.5 81.25-29.5L81.25-29.5Q78.15-29.5 75.8-27.9 73.45-26.3 72.12-23.6 70.8-20.9 70.8-17.5L70.8-17.5Q70.8-14.15 72.12-11.43 73.45-8.7 75.8-7.1 78.15-5.5 81.25-5.5L81.25-5.5Q84.34-5.5 86.7-7.1 89.05-8.7 90.4-11.43 91.75-14.15 91.75-17.5ZM107.14 0L107.14 0Q105.74 0 104.87-0.88 103.99-1.75 103.99-3.05L103.99-3.05 103.99-31.95Q103.99-33.25 104.87-34.13 105.74-35 107.04-35L107.04-35 123.29-35Q124.59-35 125.47-34.18 126.34-33.35 126.34-32.05L126.34-32.05Q126.34-30.95 125.47-30.1 124.59-29.25 123.29-29.25L123.29-29.25 109.79-29.25 110.24-29.85 110.24-19.8 109.89-20.45 121.04-20.45Q122.34-20.45 123.22-19.63 124.09-18.8 124.09-17.5L124.09-17.5Q124.09-16.4 123.22-15.55 122.34-14.7 121.04-14.7L121.04-14.7 109.79-14.7 110.24-15.15 110.24-3.05Q110.24-1.75 109.32-0.88 108.39 0 107.14 0ZM135.24 0L135.24 0Q133.84 0 132.97-0.88 132.09-1.75 132.09-3.05L132.09-3.05 132.09-31.95Q132.09-33.25 132.97-34.13 133.84-35 135.14-35L135.14-35 151.39-35Q152.69-35 153.56-34.18 154.44-33.35 154.44-32.05L154.44-32.05Q154.44-30.95 153.56-30.1 152.69-29.25 151.39-29.25L151.39-29.25 137.89-29.25 138.34-29.85 138.34-19.8 137.99-20.45 149.14-20.45Q150.44-20.45 151.31-19.63 152.19-18.8 152.19-17.5L152.19-17.5Q152.19-16.4 151.31-15.55 150.44-14.7 149.14-14.7L149.14-14.7 137.89-14.7 138.34-15.15 138.34-3.05Q138.34-1.75 137.41-0.88 136.49 0 135.24 0ZM166.44-31.95L166.44-3.05Q166.44-1.75 165.49-0.88 164.54 0 163.29 0L163.29 0Q161.89 0 161.04-0.88 160.19-1.75 160.19-3.05L160.19-3.05 160.19-31.95Q160.19-33.25 161.09-34.13 161.99-35 163.39-35L163.39-35Q164.59-35 165.51-34.13 166.44-33.25 166.44-31.95L166.44-31.95ZM198.44-33.3L198.44-33.3Q199.74-32.65 199.96-31.25 200.19-29.85 199.24-28.7L199.24-28.7Q198.59-27.8 197.56-27.7 196.53-27.6 195.49-28.1L195.49-28.1Q194.28-28.65 192.96-28.95 191.63-29.25 190.19-29.25L190.19-29.25Q187.49-29.25 185.36-28.4 183.24-27.55 181.74-25.98 180.24-24.4 179.46-22.25 178.69-20.1 178.69-17.5L178.69-17.5Q178.69-14.45 179.56-12.2 180.44-9.95 181.99-8.45 183.53-6.95 185.63-6.23 187.74-5.5 190.19-5.5L190.19-5.5Q191.53-5.5 192.88-5.75 194.24-6 195.49-6.65L195.49-6.65Q196.53-7.15 197.56-7 198.59-6.85 199.28-5.95L199.28-5.95Q200.28-4.7 200.01-3.38 199.74-2.05 198.49-1.45L198.49-1.45Q197.19-0.8 195.81-0.38 194.44 0.05 193.03 0.28 191.63 0.5 190.19 0.5L190.19 0.5Q186.59 0.5 183.36-0.65 180.13-1.8 177.61-4.05 175.09-6.3 173.63-9.68 172.19-13.05 172.19-17.5L172.19-17.5Q172.19-21.35 173.51-24.6 174.84-27.85 177.26-30.23 179.69-32.6 182.99-33.93 186.28-35.25 190.19-35.25L190.19-35.25Q192.38-35.25 194.49-34.75 196.59-34.25 198.44-33.3ZM208.33-35L208.33-35 225.08-35Q226.38-35 227.26-34.18 228.13-33.35 228.13-32.05L228.13-32.05Q228.13-30.8 227.26-30.03 226.38-29.25 225.08-29.25L225.08-29.25 211.08-29.25 211.53-30.1 211.53-20.35 211.13-20.75 222.83-20.75Q224.13-20.75 225.01-19.93 225.88-19.1 225.88-17.8L225.88-17.8Q225.88-16.55 225.01-15.78 224.13-15 222.83-15L222.83-15 211.28-15 211.53-15.4 211.53-5.3 211.13-5.75 225.08-5.75Q226.38-5.75 227.26-4.88 228.13-4 228.13-2.85L228.13-2.85Q228.13-1.6 227.26-0.8 226.38 0 225.08 0L225.08 0 208.33 0Q207.03 0 206.16-0.88 205.28-1.75 205.28-3.05L205.28-3.05 205.28-31.95Q205.28-33.25 206.16-34.13 207.03-35 208.33-35Z" opacity="1" transform="matrix(1,0,0,1,0,0)" fill="#374151" class="undefined-text-0" data-fill-palette-color="primary" id="text-0"></path></svg></g></svg></g></svg></g></svg></g><g><svg viewBox="0 0 122.75950043205432 122.75950043205432" height="122.75950043205432" width="122.75950043205432"><g><svg></svg></g><g id="icon-0"><svg viewBox="0 0 122.75950043205432 122.75950043205432" height="122.75950043205432" width="122.75950043205432"><g><path d="M0 61.38c0-33.899 27.481-61.38 61.38-61.38 33.899 0 61.38 27.481 61.38 61.38 0 33.899-27.481 61.38-61.38 61.38-33.899 0-61.38-27.481-61.38-61.38zM61.38 118.213c31.388 0 56.833-25.445 56.833-56.833 0-31.388-25.445-56.833-56.833-56.833-31.388 0-56.833 25.445-56.833 56.833 0 31.388 25.445 56.833 56.833 56.833z" data-fill-palette-color="accent" fill="#374151" stroke="transparent"></path></g><g transform="matrix(1,0,0,1,25.859401739480994,27.697438819378462)"><svg viewBox="0 0 71.04069695309234 67.3646227932974" height="67.3646227932974" width="71.04069695309234"><g><svg xmlns="http://www.w3.org/2000/svg" xmlns:xlink="http://www.w3.org/1999/xlink" version="1.1" x="0" y="0" viewBox="0 1.369047619047619 50 47.41269841269841" enable-background="new 0 0 50.4 50.4" xml:space="preserve" width="71.04069695309234" height="67.3646227932974" class="icon-_$-0" data-fill-palette-color="accent" id="_$-0"><g fill="#374151" data-fill-palette-color="accent"><path d="M13.73 7.889c-0.979 0-1.777 0.792-1.777 1.771 0 0.98 0.797 1.776 1.777 1.776 0.977 0 1.775-0.796 1.775-1.776C15.506 8.682 14.707 7.889 13.73 7.889z" fill="#374151" data-fill-palette-color="accent"></path><polygon points="50.4,8.453 50.4,1.38 0,1.38 0,8.453 2.927,8.453 2.927,4.307 23.411,4.307 23.411,23.817 20.879,23.817    20.879,16.36 5.458,16.36 5.458,23.817 2.927,23.817 2.927,12.233 0,12.233 0,30.941 2.927,30.941 2.927,26.736 23.411,26.736    23.411,46.246 20.879,46.246 20.879,38.787 5.458,38.787 5.458,46.246 2.927,46.246 2.927,34.722 0,34.722 0,49.172 50.4,49.172    50.4,34.722 47.474,34.722 47.474,46.246 44.455,46.246 44.455,38.787 29.033,38.787 29.033,46.246 26.338,46.246 26.338,26.736    47.474,26.736 47.474,30.941 50.4,30.941 50.4,12.233 47.474,12.233 47.474,23.817 44.455,23.817 44.455,16.36 29.033,16.36    29.033,23.817 26.338,23.817 26.338,4.307 47.474,4.307 47.474,8.453  " fill="#374151" data-fill-palette-color="accent"></polygon><rect x="8.292" y="8.495" width="1.266" height="6.99" fill="#374151" data-fill-palette-color="accent"></rect><path d="M19.259 15.525c-0.498-1.229-1.838-3.624-4.678-3.519-1.708 0.063-2.007 2.417-2.055 3.519H19.259z" fill="#374151" data-fill-palette-color="accent"></path><path d="M37.305 7.889c-0.979 0-1.777 0.792-1.777 1.771 0 0.98 0.799 1.776 1.777 1.776s1.776-0.796 1.776-1.776C39.081 8.682 38.283 7.889 37.305 7.889z" fill="#374151" data-fill-palette-color="accent"></path><rect x="31.868" y="8.495" width="1.267" height="6.99" fill="#374151" data-fill-palette-color="accent"></rect><path d="M42.835 15.525c-0.498-1.229-1.839-3.624-4.678-3.519-1.71 0.063-2.008 2.417-2.056 3.519H42.835z" fill="#374151" data-fill-palette-color="accent"></path><path d="M13.73 30.316c-0.979 0-1.777 0.793-1.777 1.772 0 0.98 0.797 1.776 1.777 1.776 0.977 0 1.775-0.796 1.775-1.776C15.506 31.109 14.707 30.316 13.73 30.316z" fill="#374151" data-fill-palette-color="accent"></path><rect x="8.292" y="30.924" width="1.266" height="6.991" fill="#374151" data-fill-palette-color="accent"></rect><path d="M19.259 37.953c-0.498-1.228-1.838-3.623-4.678-3.519-1.708 0.062-2.007 2.418-2.055 3.519H19.259z" fill="#374151" data-fill-palette-color="accent"></path><path d="M37.305 30.316c-0.979 0-1.777 0.793-1.777 1.772 0 0.98 0.799 1.776 1.777 1.776s1.776-0.796 1.776-1.776C39.081 31.109 38.283 30.316 37.305 30.316z" fill="#374151" data-fill-palette-color="accent"></path><rect x="31.868" y="30.924" width="1.267" height="6.991" fill="#374151" data-fill-palette-color="accent"></rect><path d="M42.835 37.953c-0.498-1.228-1.839-3.623-4.678-3.519-1.71 0.062-2.008 2.418-2.056 3.519H42.835z" fill="#374151" data-fill-palette-color="accent"></path></g></svg></g></svg></g></svg></g></svg></g></svg></g></svg></g><g><path d="M0 123.6c0-68.262 55.338-123.6 123.6-123.6 53.482 0 99.031 33.969 116.248 81.508h-1.513c-17.152-46.739-62.049-80.087-114.735-80.087-67.477 0-122.179 54.701-122.179 122.179 0 67.477 54.701 122.179 122.179 122.179 52.686 0 97.583-33.348 114.735-80.087l1.513 0c-17.217 47.539-62.765 81.508-116.248 81.508-68.262 0-123.6-55.338-123.6-123.6z" fill="#374151" stroke="transparent" data-fill-palette-color="tertiary"></path></g></svg></g><defs></defs></svg><rect width="395.52" height="247.2" fill="none" stroke="none" visibility="hidden"></rect></g></svg></g></svg>