<svg xmlns="http://www.w3.org/2000/svg" version="1.1" xmlns:xlink="http://www.w3.org/1999/xlink" xmlns:svgjs="http://svgjs.dev/svgjs" width="1000" height="1000" viewBox="0 0 1000 1000"><rect width="1000" height="1000" fill="#ffffff"></rect><g transform="matrix(0.7,0,0,0.7,150.12638692844422,270.9356275303644)"><svg viewBox="0 0 377 247" data-background-color="#f3d3b1" preserveAspectRatio="xMidYMid meet" height="655" width="1000" xmlns="http://www.w3.org/2000/svg" xmlns:xlink="http://www.w3.org/1999/xlink"><g id="tight-bounds" transform="matrix(1,0,0,1,-0.06806838860495645,-0.09999999999999432)"><svg viewBox="0 0 377.1361291849778 247.2" height="247.2" width="377.1361291849778"><g><svg viewBox="0 0 395.52 259.2500066522253" height="247.2" width="377.1361291849778"><g transform="matrix(1,0,0,1,0,192.1653423412712)"><svg viewBox="0 0 395.52 67.08466431095407" height="67.08466431095407" width="395.52"><g id="textblocktransform"><svg viewBox="0 0 395.52 67.08466431095407" height="67.08466431095407" width="395.52" id="textblock"><g><svg viewBox="0 0 395.52 67.08466431095407" height="67.08466431095407" width="395.52"><g transform="matrix(1,0,0,1,0,0)"><svg width="395.52" viewBox="1.5 -35.5 212.22999572753906 36" height="67.08466431095407" data-palette-color="#374151"><path d="M29.3-35.1L29.3-35.1Q30.55-35.1 31.48-34.27 32.4-33.45 32.4-32.2L32.4-32.2Q32.4-31.55 32.1-30.85L32.1-30.85 19.75-1.95Q19.3-0.95 18.48-0.48 17.65 0 16.8 0L16.8 0Q16-0.05 15.25-0.53 14.5-1 14.1-1.9L14.1-1.9 1.75-30.9Q1.6-31.2 1.55-31.53 1.5-31.85 1.5-32.15L1.5-32.15Q1.5-33.6 2.55-34.38 3.6-35.15 4.55-35.15L4.55-35.15Q6.45-35.15 7.3-33.2L7.3-33.2 18.25-7.45 16.5-7.4 26.55-33.2Q27.4-35.1 29.3-35.1ZM83.84-17.5L83.84-17.5Q83.84-13.75 82.59-10.5 81.34-7.25 79.07-4.78 76.8-2.3 73.67-0.9 70.55 0.5 66.84 0.5L66.84 0.5Q63.15 0.5 60.05-0.9 56.95-2.3 54.67-4.78 52.4-7.25 51.15-10.5 49.9-13.75 49.9-17.5L49.9-17.5Q49.9-21.25 51.15-24.5 52.4-27.75 54.67-30.23 56.95-32.7 60.05-34.1 63.15-35.5 66.84-35.5L66.84-35.5Q70.55-35.5 73.67-34.1 76.8-32.7 79.07-30.23 81.34-27.75 82.59-24.5 83.84-21.25 83.84-17.5ZM77.34-17.5L77.34-17.5Q77.34-20.85 76-23.58 74.65-26.3 72.3-27.9 69.95-29.5 66.84-29.5L66.84-29.5Q63.75-29.5 61.4-27.9 59.05-26.3 57.72-23.6 56.4-20.9 56.4-17.5L56.4-17.5Q56.4-14.15 57.72-11.43 59.05-8.7 61.4-7.1 63.75-5.5 66.84-5.5L66.84-5.5Q69.95-5.5 72.3-7.1 74.65-8.7 76-11.43 77.34-14.15 77.34-17.5ZM92.74 0L92.74 0Q91.34 0 90.47-0.88 89.59-1.75 89.59-3.05L89.59-3.05 89.59-31.95Q89.59-33.25 90.47-34.13 91.34-35 92.64-35L92.64-35 108.89-35Q110.19-35 111.07-34.18 111.94-33.35 111.94-32.05L111.94-32.05Q111.94-30.95 111.07-30.1 110.19-29.25 108.89-29.25L108.89-29.25 95.39-29.25 95.84-29.85 95.84-19.8 95.49-20.45 106.64-20.45Q107.94-20.45 108.82-19.63 109.69-18.8 109.69-17.5L109.69-17.5Q109.69-16.4 108.82-15.55 107.94-14.7 106.64-14.7L106.64-14.7 95.39-14.7 95.84-15.15 95.84-3.05Q95.84-1.75 94.92-0.88 93.99 0 92.74 0ZM120.84 0L120.84 0Q119.44 0 118.56-0.88 117.69-1.75 117.69-3.05L117.69-3.05 117.69-31.95Q117.69-33.25 118.56-34.13 119.44-35 120.74-35L120.74-35 136.99-35Q138.29-35 139.16-34.18 140.04-33.35 140.04-32.05L140.04-32.05Q140.04-30.95 139.16-30.1 138.29-29.25 136.99-29.25L136.99-29.25 123.49-29.25 123.94-29.85 123.94-19.8 123.59-20.45 134.74-20.45Q136.04-20.45 136.91-19.63 137.79-18.8 137.79-17.5L137.79-17.5Q137.79-16.4 136.91-15.55 136.04-14.7 134.74-14.7L134.74-14.7 123.49-14.7 123.94-15.15 123.94-3.05Q123.94-1.75 123.02-0.88 122.09 0 120.84 0ZM152.04-31.95L152.04-3.05Q152.04-1.75 151.09-0.88 150.14 0 148.89 0L148.89 0Q147.49 0 146.64-0.88 145.79-1.75 145.79-3.05L145.79-3.05 145.79-31.95Q145.79-33.25 146.69-34.13 147.59-35 148.99-35L148.99-35Q150.19-35 151.11-34.13 152.04-33.25 152.04-31.95L152.04-31.95ZM184.03-33.3L184.03-33.3Q185.34-32.65 185.56-31.25 185.78-29.85 184.84-28.7L184.84-28.7Q184.19-27.8 183.16-27.7 182.13-27.6 181.09-28.1L181.09-28.1Q179.88-28.65 178.56-28.95 177.24-29.25 175.78-29.25L175.78-29.25Q173.09-29.25 170.96-28.4 168.84-27.55 167.34-25.98 165.84-24.4 165.06-22.25 164.28-20.1 164.28-17.5L164.28-17.5Q164.28-14.45 165.16-12.2 166.03-9.95 167.59-8.45 169.13-6.95 171.23-6.23 173.34-5.5 175.78-5.5L175.78-5.5Q177.13-5.5 178.49-5.75 179.84-6 181.09-6.65L181.09-6.65Q182.13-7.15 183.16-7 184.19-6.85 184.88-5.95L184.88-5.95Q185.88-4.7 185.61-3.38 185.34-2.05 184.09-1.45L184.09-1.45Q182.78-0.8 181.41-0.38 180.03 0.05 178.63 0.28 177.24 0.5 175.78 0.5L175.78 0.5Q172.19 0.5 168.96-0.65 165.73-1.8 163.21-4.05 160.69-6.3 159.23-9.68 157.78-13.05 157.78-17.5L157.78-17.5Q157.78-21.35 159.11-24.6 160.44-27.85 162.86-30.23 165.28-32.6 168.59-33.93 171.88-35.25 175.78-35.25L175.78-35.25Q177.99-35.25 180.09-34.75 182.19-34.25 184.03-33.3ZM193.93-35L193.93-35 210.68-35Q211.98-35 212.86-34.18 213.73-33.35 213.73-32.05L213.73-32.05Q213.73-30.8 212.86-30.03 211.98-29.25 210.68-29.25L210.68-29.25 196.68-29.25 197.13-30.1 197.13-20.35 196.73-20.75 208.43-20.75Q209.73-20.75 210.61-19.93 211.48-19.1 211.48-17.8L211.48-17.8Q211.48-16.55 210.61-15.78 209.73-15 208.43-15L208.43-15 196.88-15 197.13-15.4 197.13-5.3 196.73-5.75 210.68-5.75Q211.98-5.75 212.86-4.88 213.73-4 213.73-2.85L213.73-2.85Q213.73-1.6 212.86-0.8 211.98 0 210.68 0L210.68 0 193.93 0Q192.63 0 191.76-0.88 190.88-1.75 190.88-3.05L190.88-3.05 190.88-31.95Q190.88-33.25 191.76-34.13 192.63-35 193.93-35Z" opacity="1" transform="matrix(1,0,0,1,0,0)" fill="#000000" class="undefined-text-0" data-fill-palette-color="primary" id="text-0"></path></svg></g></svg></g></svg></g></svg></g><g transform="matrix(1,0,0,1,117.51440804123717,0)"><svg viewBox="0 0 160.49118391752563 160.49118391752563" height="160.49118391752563" width="160.49118391752563"><g><svg></svg></g><g id="icon-0"><svg viewBox="0 0 160.49118391752563 160.49118391752563" height="160.49118391752563" width="160.49118391752563"><g><path d="M0 80.246c0-44.318 35.927-80.246 80.246-80.246 44.318 0 80.246 35.927 80.245 80.246 0 44.318-35.927 80.246-80.245 80.245-44.318 0-80.246-35.927-80.246-80.245zM80.246 154.441c40.977 0 74.196-33.219 74.195-74.195 0-40.977-33.219-74.196-74.195-74.196-40.977 0-74.196 33.219-74.196 74.196 0 40.977 33.219 74.196 74.196 74.195z" data-fill-palette-color="accent" fill="#000000" stroke="transparent"></path></g><g transform="matrix(1,0,0,1,34.03179032491161,36.42317266599869)"><svg viewBox="0 0 92.42760326770241 87.64483858552825" height="87.64483858552825" width="92.42760326770241"><g><svg xmlns="http://www.w3.org/2000/svg" xmlns:xlink="http://www.w3.org/1999/xlink" version="1.1" x="0" y="0" viewBox="0 1.3799999952316284 50.400001525878906 47.79199981689453" enable-background="new 0 0 50.4 50.4" xml:space="preserve" width="92.42760326770241" height="87.64483858552825" class="icon-s-0" data-fill-palette-color="accent" id="s-0"><g fill="#374151" data-fill-palette-color="accent"><path d="M13.73 7.889c-0.979 0-1.777 0.792-1.777 1.771 0 0.98 0.797 1.776 1.777 1.776 0.977 0 1.775-0.796 1.775-1.776C15.506 8.682 14.707 7.889 13.73 7.889z" fill="#000000" data-fill-palette-color="accent"></path><polygon points="50.4,8.453 50.4,1.38 0,1.38 0,8.453 2.927,8.453 2.927,4.307 23.411,4.307 23.411,23.817 20.879,23.817    20.879,16.36 5.458,16.36 5.458,23.817 2.927,23.817 2.927,12.233 0,12.233 0,30.941 2.927,30.941 2.927,26.736 23.411,26.736    23.411,46.246 20.879,46.246 20.879,38.787 5.458,38.787 5.458,46.246 2.927,46.246 2.927,34.722 0,34.722 0,49.172 50.4,49.172    50.4,34.722 47.474,34.722 47.474,46.246 44.455,46.246 44.455,38.787 29.033,38.787 29.033,46.246 26.338,46.246 26.338,26.736    47.474,26.736 47.474,30.941 50.4,30.941 50.4,12.233 47.474,12.233 47.474,23.817 44.455,23.817 44.455,16.36 29.033,16.36    29.033,23.817 26.338,23.817 26.338,4.307 47.474,4.307 47.474,8.453  " fill="#000000" data-fill-palette-color="accent"></polygon><rect x="8.292" y="8.495" width="1.266" height="6.99" fill="#000000" data-fill-palette-color="accent"></rect><path d="M19.259 15.525c-0.498-1.229-1.838-3.624-4.678-3.519-1.708 0.063-2.007 2.417-2.055 3.519H19.259z" fill="#000000" data-fill-palette-color="accent"></path><path d="M37.305 7.889c-0.979 0-1.777 0.792-1.777 1.771 0 0.98 0.799 1.776 1.777 1.776s1.776-0.796 1.776-1.776C39.081 8.682 38.283 7.889 37.305 7.889z" fill="#000000" data-fill-palette-color="accent"></path><rect x="31.868" y="8.495" width="1.267" height="6.99" fill="#000000" data-fill-palette-color="accent"></rect><path d="M42.835 15.525c-0.498-1.229-1.839-3.624-4.678-3.519-1.71 0.063-2.008 2.417-2.056 3.519H42.835z" fill="#000000" data-fill-palette-color="accent"></path><path d="M13.73 30.316c-0.979 0-1.777 0.793-1.777 1.772 0 0.98 0.797 1.776 1.777 1.776 0.977 0 1.775-0.796 1.775-1.776C15.506 31.109 14.707 30.316 13.73 30.316z" fill="#000000" data-fill-palette-color="accent"></path><rect x="8.292" y="30.924" width="1.266" height="6.991" fill="#000000" data-fill-palette-color="accent"></rect><path d="M19.259 37.953c-0.498-1.228-1.838-3.623-4.678-3.519-1.708 0.062-2.007 2.418-2.055 3.519H19.259z" fill="#000000" data-fill-palette-color="accent"></path><path d="M37.305 30.316c-0.979 0-1.777 0.793-1.777 1.772 0 0.98 0.799 1.776 1.777 1.776s1.776-0.796 1.776-1.776C39.081 31.109 38.283 30.316 37.305 30.316z" fill="#000000" data-fill-palette-color="accent"></path><rect x="31.868" y="30.924" width="1.267" height="6.991" fill="#000000" data-fill-palette-color="accent"></rect><path d="M42.835 37.953c-0.498-1.228-1.839-3.623-4.678-3.519-1.71 0.062-2.008 2.418-2.056 3.519H42.835z" fill="#000000" data-fill-palette-color="accent"></path></g></svg></g></svg></g></svg></g></svg></g><g></g></svg></g><defs></defs></svg><rect width="377.1361291849778" height="247.2" fill="none" stroke="none" visibility="hidden"></rect></g></svg></g></svg>