<svg xmlns="http://www.w3.org/2000/svg" version="1.1" xmlns:xlink="http://www.w3.org/1999/xlink" xmlns:svgjs="http://svgjs.dev/svgjs" width="1000" height="656" viewBox="0 0 1000 656"><g transform="matrix(1,0,0,1,0.16063731698392303,0.2655870445344135)"><svg viewBox="0 0 376 247" data-background-color="#f3d3b1" preserveAspectRatio="xMidYMid meet" height="656" width="1000" xmlns="http://www.w3.org/2000/svg" xmlns:xlink="http://www.w3.org/1999/xlink"><g id="tight-bounds" transform="matrix(1,0,0,1,-0.060399631185958924,-0.09999999999999432)"><svg viewBox="0 0 376.1207992623719 247.2" height="247.2" width="376.1207992623719"><g><svg viewBox="0 0 395.52 259.9498464103721" height="247.2" width="376.1207992623719"><g transform="matrix(1,0,0,1,0,192.69089506412743)"><svg viewBox="0 0 395.52 67.25895134624469" height="67.25895134624469" width="395.52"><g id="textblocktransform"><svg viewBox="0 0 395.52 67.25895134624469" height="67.25895134624469" width="395.52" id="textblock"><g><svg viewBox="0 0 395.52 67.25895134624469" height="67.25895134624469" width="395.52"><g transform="matrix(1,0,0,1,0,0)"><svg width="395.52" viewBox="1.5 -35.5 211.68 36" height="67.25895134624469" data-palette-color="#374151"><path d="M29.3-35.1L29.3-35.1Q30.55-35.1 31.48-34.27 32.4-33.45 32.4-32.2L32.4-32.2Q32.4-31.55 32.1-30.85L32.1-30.85 19.75-1.95Q19.3-0.95 18.48-0.48 17.65 0 16.8 0L16.8 0Q16-0.05 15.25-0.53 14.5-1 14.1-1.9L14.1-1.9 1.75-30.9Q1.6-31.2 1.55-31.53 1.5-31.85 1.5-32.15L1.5-32.15Q1.5-33.6 2.55-34.38 3.6-35.15 4.55-35.15L4.55-35.15Q6.45-35.15 7.3-33.2L7.3-33.2 18.25-7.45 16.5-7.4 26.55-33.2Q27.4-35.1 29.3-35.1ZM69.3-17.5L69.3-17.5Q69.3-13.75 68.05-10.5 66.8-7.25 64.52-4.78 62.25-2.3 59.12-0.9 56 0.5 52.3 0.5L52.3 0.5Q48.6 0.5 45.5-0.9 42.4-2.3 40.12-4.78 37.85-7.25 36.6-10.5 35.35-13.75 35.35-17.5L35.35-17.5Q35.35-21.25 36.6-24.5 37.85-27.75 40.12-30.23 42.4-32.7 45.5-34.1 48.6-35.5 52.3-35.5L52.3-35.5Q56-35.5 59.12-34.1 62.25-32.7 64.52-30.23 66.8-27.75 68.05-24.5 69.3-21.25 69.3-17.5ZM62.8-17.5L62.8-17.5Q62.8-20.85 61.45-23.58 60.1-26.3 57.75-27.9 55.4-29.5 52.3-29.5L52.3-29.5Q49.2-29.5 46.85-27.9 44.5-26.3 43.17-23.6 41.85-20.9 41.85-17.5L41.85-17.5Q41.85-14.15 43.17-11.43 44.5-8.7 46.85-7.1 49.2-5.5 52.3-5.5L52.3-5.5Q55.4-5.5 57.75-7.1 60.1-8.7 61.45-11.43 62.8-14.15 62.8-17.5ZM92.19 0L92.19 0Q90.79 0 89.92-0.88 89.04-1.75 89.04-3.05L89.04-3.05 89.04-31.95Q89.04-33.25 89.92-34.13 90.79-35 92.09-35L92.09-35 108.34-35Q109.64-35 110.52-34.18 111.39-33.35 111.39-32.05L111.39-32.05Q111.39-30.95 110.52-30.1 109.64-29.25 108.34-29.25L108.34-29.25 94.84-29.25 95.29-29.85 95.29-19.8 94.94-20.45 106.09-20.45Q107.39-20.45 108.27-19.63 109.14-18.8 109.14-17.5L109.14-17.5Q109.14-16.4 108.27-15.55 107.39-14.7 106.09-14.7L106.09-14.7 94.84-14.7 95.29-15.15 95.29-3.05Q95.29-1.75 94.37-0.88 93.44 0 92.19 0ZM120.29 0L120.29 0Q118.89 0 118.02-0.88 117.14-1.75 117.14-3.05L117.14-3.05 117.14-31.95Q117.14-33.25 118.02-34.13 118.89-35 120.19-35L120.19-35 136.44-35Q137.74-35 138.62-34.18 139.49-33.35 139.49-32.05L139.49-32.05Q139.49-30.95 138.62-30.1 137.74-29.25 136.44-29.25L136.44-29.25 122.94-29.25 123.39-29.85 123.39-19.8 123.04-20.45 134.19-20.45Q135.49-20.45 136.37-19.63 137.24-18.8 137.24-17.5L137.24-17.5Q137.24-16.4 136.37-15.55 135.49-14.7 134.19-14.7L134.19-14.7 122.94-14.7 123.39-15.15 123.39-3.05Q123.39-1.75 122.47-0.88 121.54 0 120.29 0ZM151.49-31.95L151.49-3.05Q151.49-1.75 150.54-0.88 149.59 0 148.34 0L148.34 0Q146.94 0 146.09-0.88 145.24-1.75 145.24-3.05L145.24-3.05 145.24-31.95Q145.24-33.25 146.14-34.13 147.04-35 148.44-35L148.44-35Q149.64-35 150.56-34.13 151.49-33.25 151.49-31.95L151.49-31.95ZM183.49-33.3L183.49-33.3Q184.79-32.65 185.01-31.25 185.24-29.85 184.29-28.7L184.29-28.7Q183.64-27.8 182.61-27.7 181.59-27.6 180.54-28.1L180.54-28.1Q179.34-28.65 178.01-28.95 176.69-29.25 175.24-29.25L175.24-29.25Q172.54-29.25 170.41-28.4 168.29-27.55 166.79-25.98 165.29-24.4 164.51-22.25 163.74-20.1 163.74-17.5L163.74-17.5Q163.74-14.45 164.61-12.2 165.49-9.95 167.04-8.45 168.59-6.95 170.69-6.23 172.79-5.5 175.24-5.5L175.24-5.5Q176.59-5.5 177.94-5.75 179.29-6 180.54-6.65L180.54-6.65Q181.59-7.15 182.61-7 183.64-6.85 184.34-5.95L184.34-5.95Q185.34-4.7 185.06-3.38 184.79-2.05 183.54-1.45L183.54-1.45Q182.24-0.8 180.86-0.38 179.49 0.05 178.09 0.28 176.69 0.5 175.24 0.5L175.24 0.5Q171.64 0.5 168.41-0.65 165.19-1.8 162.66-4.05 160.14-6.3 158.69-9.68 157.24-13.05 157.24-17.5L157.24-17.5Q157.24-21.35 158.56-24.6 159.89-27.85 162.31-30.23 164.74-32.6 168.04-33.93 171.34-35.25 175.24-35.25L175.24-35.25Q177.44-35.25 179.54-34.75 181.64-34.25 183.49-33.3ZM193.38-35L193.38-35 210.13-35Q211.43-35 212.31-34.18 213.18-33.35 213.18-32.05L213.18-32.05Q213.18-30.8 212.31-30.03 211.43-29.25 210.13-29.25L210.13-29.25 196.13-29.25 196.58-30.1 196.58-20.35 196.18-20.75 207.88-20.75Q209.18-20.75 210.06-19.93 210.93-19.1 210.93-17.8L210.93-17.8Q210.93-16.55 210.06-15.78 209.18-15 207.88-15L207.88-15 196.33-15 196.58-15.4 196.58-5.3 196.18-5.75 210.13-5.75Q211.43-5.75 212.31-4.88 213.18-4 213.18-2.85L213.18-2.85Q213.18-1.6 212.31-0.8 211.43 0 210.13 0L210.13 0 193.38 0Q192.08 0 191.21-0.88 190.33-1.75 190.33-3.05L190.33-3.05 190.33-31.95Q190.33-33.25 191.21-34.13 192.08-35 193.38-35Z" opacity="1" transform="matrix(1,0,0,1,0,0)" fill="#374151" class="undefined-text-0" data-fill-palette-color="primary" id="text-0"></path></svg></g></svg></g></svg></g></svg></g><g transform="matrix(1,0,0,1,117.29277666595233,0)"><svg viewBox="0 0 160.93444666809532 160.93444666809532" height="160.93444666809532" width="160.93444666809532"><g><svg></svg></g><g id="icon-0"><svg viewBox="0 0 160.93444666809532 160.93444666809532" height="160.93444666809532" width="160.93444666809532"><g><path d="M0 80.467c0-44.441 36.026-80.467 80.467-80.467 44.441 0 80.467 36.026 80.467 80.467 0 44.441-36.026 80.467-80.467 80.467-44.441 0-80.467-36.026-80.467-80.467zM80.467 154.869c41.091 0 74.402-33.311 74.402-74.402 0-41.091-33.311-74.402-74.402-74.402-41.091 0-74.402 33.311-74.402 74.402 0 41.091 33.311 74.402 74.402 74.402z" data-fill-palette-color="accent" fill="#374151" stroke="transparent"></path></g><g transform="matrix(1,0,0,1,34.09987456059411,36.49920086220457)"><svg viewBox="0 0 92.7346975469071 87.93604494368618" height="87.93604494368618" width="92.7346975469071"><g><svg xmlns="http://www.w3.org/2000/svg" xmlns:xlink="http://www.w3.org/1999/xlink" version="1.1" x="0" y="0" viewBox="0 1.369047619047619 50 47.41269841269841" enable-background="new 0 0 50.4 50.4" xml:space="preserve" width="92.7346975469071" height="87.93604494368618" class="icon-_$-0" data-fill-palette-color="accent" id="_$-0"><g fill="#374151" data-fill-palette-color="accent"><path d="M13.73 7.889c-0.979 0-1.777 0.792-1.777 1.771 0 0.98 0.797 1.776 1.777 1.776 0.977 0 1.775-0.796 1.775-1.776C15.506 8.682 14.707 7.889 13.73 7.889z" fill="#374151" data-fill-palette-color="accent"></path><polygon points="50.4,8.453 50.4,1.38 0,1.38 0,8.453 2.927,8.453 2.927,4.307 23.411,4.307 23.411,23.817 20.879,23.817    20.879,16.36 5.458,16.36 5.458,23.817 2.927,23.817 2.927,12.233 0,12.233 0,30.941 2.927,30.941 2.927,26.736 23.411,26.736    23.411,46.246 20.879,46.246 20.879,38.787 5.458,38.787 5.458,46.246 2.927,46.246 2.927,34.722 0,34.722 0,49.172 50.4,49.172    50.4,34.722 47.474,34.722 47.474,46.246 44.455,46.246 44.455,38.787 29.033,38.787 29.033,46.246 26.338,46.246 26.338,26.736    47.474,26.736 47.474,30.941 50.4,30.941 50.4,12.233 47.474,12.233 47.474,23.817 44.455,23.817 44.455,16.36 29.033,16.36    29.033,23.817 26.338,23.817 26.338,4.307 47.474,4.307 47.474,8.453  " fill="#374151" data-fill-palette-color="accent"></polygon><rect x="8.292" y="8.495" width="1.266" height="6.99" fill="#374151" data-fill-palette-color="accent"></rect><path d="M19.259 15.525c-0.498-1.229-1.838-3.624-4.678-3.519-1.708 0.063-2.007 2.417-2.055 3.519H19.259z" fill="#374151" data-fill-palette-color="accent"></path><path d="M37.305 7.889c-0.979 0-1.777 0.792-1.777 1.771 0 0.98 0.799 1.776 1.777 1.776s1.776-0.796 1.776-1.776C39.081 8.682 38.283 7.889 37.305 7.889z" fill="#374151" data-fill-palette-color="accent"></path><rect x="31.868" y="8.495" width="1.267" height="6.99" fill="#374151" data-fill-palette-color="accent"></rect><path d="M42.835 15.525c-0.498-1.229-1.839-3.624-4.678-3.519-1.71 0.063-2.008 2.417-2.056 3.519H42.835z" fill="#374151" data-fill-palette-color="accent"></path><path d="M13.73 30.316c-0.979 0-1.777 0.793-1.777 1.772 0 0.98 0.797 1.776 1.777 1.776 0.977 0 1.775-0.796 1.775-1.776C15.506 31.109 14.707 30.316 13.73 30.316z" fill="#374151" data-fill-palette-color="accent"></path><rect x="8.292" y="30.924" width="1.266" height="6.991" fill="#374151" data-fill-palette-color="accent"></rect><path d="M19.259 37.953c-0.498-1.228-1.838-3.623-4.678-3.519-1.708 0.062-2.007 2.418-2.055 3.519H19.259z" fill="#374151" data-fill-palette-color="accent"></path><path d="M37.305 30.316c-0.979 0-1.777 0.793-1.777 1.772 0 0.98 0.799 1.776 1.777 1.776s1.776-0.796 1.776-1.776C39.081 31.109 38.283 30.316 37.305 30.316z" fill="#374151" data-fill-palette-color="accent"></path><rect x="31.868" y="30.924" width="1.267" height="6.991" fill="#374151" data-fill-palette-color="accent"></rect><path d="M42.835 37.953c-0.498-1.228-1.839-3.623-4.678-3.519-1.71 0.062-2.008 2.418-2.056 3.519H42.835z" fill="#374151" data-fill-palette-color="accent"></path></g></svg></g></svg></g></svg></g></svg></g><g></g></svg></g><defs></defs></svg><rect width="376.1207992623719" height="247.2" fill="none" stroke="none" visibility="hidden"></rect></g></svg></g></svg>